<svg id="Layer_1" data-name="Layer 1" xmlns="http://www.w3.org/2000/svg" viewBox="0 0 72 92"><defs><style>.cls-1,.cls-2{fill:none;stroke:#5580ff;stroke-miterlimit:10;stroke-width:4px;}.cls-2{stroke-linecap:round;}</style></defs><path class="cls-1" d="M87.74,107.5H39.26a9.76,9.76,0,0,1-9.76-9.76v-47a4.07,4.07,0,0,1,.65-2.2l10.35-16,6.81-11.07a4.06,4.06,0,0,1,3.45-1.93h37a9.76,9.76,0,0,1,9.76,9.76V97.74A9.76,9.76,0,0,1,87.74,107.5Z" transform="translate(-27.5 -17.5)"/><path class="cls-1" d="M29.8,49.19l19.92.27a2.34,2.34,0,0,0,2.35-2.7L48,20.61" transform="translate(-27.5 -17.5)"/><path class="cls-2" d="M79,37S60,49,58,60s24.32-1.64,16,15C68,87,50,92,50,92" transform="translate(-27.5 -17.5)"/></svg>